<svg xmlns="http://www.w3.org/2000/svg" width="198" height="81" viewBox="0 0 198 81">
  <defs>
    <style>
      .cls-1 {
        fill: #005590;
        fill-rule: evenodd;
      }
    </style>
  </defs>
  <path id="msd" class="cls-1" d="M9.109,61.4H21.281l4.326-20.7q1.145-5.385,1.654-6.913A19.249,19.249,0,0,1,30,28.445a12.117,12.117,0,0,1,3.711-3.265,8.41,8.41,0,0,1,4.114-1.187,4.645,4.645,0,0,1,3.329,1.145,3.854,3.854,0,0,1,1.209,2.926,40.092,40.092,0,0,1-.975,6.107L35.7,61.4H47.872l4.283-20.442q1.823-8.736,4.411-12.172,3.562-4.792,8.1-4.792a4.692,4.692,0,0,1,3.372,1.081,3.9,3.9,0,0,1,1.124,2.948q0,0.679-1.06,5.853L62.334,61.4H74.506l5.768-27.524a46.616,46.616,0,0,0,1.188-8.058,10.084,10.084,0,0,0-3.011-7.634q-3.012-2.884-8.4-2.884a19.3,19.3,0,0,0-9.076,2.29,18.116,18.116,0,0,0-6.7,5.683,9.5,9.5,0,0,0-3.52-5.853Q48,15.3,42.91,15.3q-7.379,0-14.08,6.531l1.145-5.471H18.525ZM93.25,58.874q5.322,3.584,15.077,3.584,9.8,0,15.183-4.707T128.9,46.639a10.679,10.679,0,0,0-4.241-8.482q-3.012-2.5-11.917-5.089a39.744,39.744,0,0,1-6.828-2.375,3.255,3.255,0,0,1-1.7-2.8,3.647,3.647,0,0,1,1.675-2.926q1.675-1.272,5.492-1.272a12.319,12.319,0,0,1,6.532,1.654,6.943,6.943,0,0,1,2.883,3.69l11.239-1.951a13.864,13.864,0,0,0-5.64-8.609Q121.94,15.3,113.246,15.3q-10.941,0-16.5,5.386a12.368,12.368,0,0,0-3.987,9.2,10.571,10.571,0,0,0,4.114,8.652q2.629,2.121,13.656,5.768,4.113,1.358,5.047,2.29a3.185,3.185,0,0,1,.891,2.205,3.745,3.745,0,0,1-1.739,3.1,10.876,10.876,0,0,1-6.659,1.866,11.379,11.379,0,0,1-6.361-1.548,11.4,11.4,0,0,1-3.9-5.28L86.019,48.8A17.76,17.76,0,0,0,93.25,58.874ZM191.344-.776H179.172L174.3,22.508q-4.539-7.209-13.614-7.21-10.052,0-16.158,8.737a33.337,33.337,0,0,0-6.107,19.551q0,9.331,4.347,14.1a14.63,14.63,0,0,0,11.345,4.771,18.134,18.134,0,0,0,7.231-1.378,22.389,22.389,0,0,0,6.51-4.559L166.831,61.4h11.535Zm-37.66,31q3.435-5.937,8.778-5.937a7.871,7.871,0,0,1,6.065,3.011,11.561,11.561,0,0,1,2.63,7.888,25.872,25.872,0,0,1-1.718,8.949,15.354,15.354,0,0,1-4.58,6.934,9.745,9.745,0,0,1-6.171,2.269,7.752,7.752,0,0,1-6-2.714q-2.439-2.714-2.439-7.549A25.217,25.217,0,0,1,153.684,30.226Z"/>
  <path id="medical_stores_department" data-name="medical stores department" class="cls-1" d="M10.594,76.458L11.317,73a5.606,5.606,0,0,1,.6-1.717,2.65,2.65,0,0,1,.946-0.939,2.222,2.222,0,0,1,1.111-.337,0.793,0.793,0,0,1,.582.22,0.776,0.776,0,0,1,.224.578,3.873,3.873,0,0,1-.11.716l-1.032,4.934h1.245l0.743-3.544a5.919,5.919,0,0,1,.561-1.682,2.444,2.444,0,0,1,.9-0.884,2.246,2.246,0,0,1,1.135-.337,0.918,0.918,0,0,1,.64.206,0.725,0.725,0,0,1,.227.564,4.534,4.534,0,0,1-.131.846l-1,4.831H19.2l0.984-4.707a6.43,6.43,0,0,0,.158-1.115,1.6,1.6,0,0,0-.458-1.218,1.929,1.929,0,0,0-1.373-.433,2.641,2.641,0,0,0-1.3.341,4.085,4.085,0,0,0-1.173,1.029,1.71,1.71,0,0,0-.6-1.008,1.781,1.781,0,0,0-1.139-.361,2.456,2.456,0,0,0-1.187.3,4.982,4.982,0,0,0-1.242,1.073l0.255-1.2H10.877L9.349,76.458h1.246ZM25.64,75.185a2.223,2.223,0,0,1-1.259.42,1.473,1.473,0,0,1-1.153-.54,2.312,2.312,0,0,1-.471-1.565,3.031,3.031,0,0,1,.028-0.385h5.381a6.539,6.539,0,0,0,.1-1.1,3.063,3.063,0,0,0-.781-2.216,2.763,2.763,0,0,0-2.088-.812,3.546,3.546,0,0,0-1.906.547A3.954,3.954,0,0,0,22.051,71.2a5.2,5.2,0,0,0-.554,2.322,3.625,3.625,0,0,0,.354,1.631,2.461,2.461,0,0,0,1.032,1.091,3.026,3.026,0,0,0,1.49.375,3.311,3.311,0,0,0,2.24-.812,3.665,3.665,0,0,0,1.2-1.713L26.6,73.974A2.732,2.732,0,0,1,25.64,75.185Zm-1.675-4.679a2.213,2.213,0,0,1,1.455-.55,1.578,1.578,0,0,1,1.2.5,2.021,2.021,0,0,1,.468,1.435q0,0.082-.007.275h-4.1A3.3,3.3,0,0,1,23.964,70.506Zm9.957,5.952h1.149l2.106-10.088H35.938L35.112,70.3a2.214,2.214,0,0,0-2.057-1.314,2.944,2.944,0,0,0-1.648.55,4.139,4.139,0,0,0-1.369,1.655,5.42,5.42,0,0,0-.547,2.439,3.219,3.219,0,0,0,.692,2.226,2.233,2.233,0,0,0,1.731.767,3,3,0,0,0,2.23-1.225ZM30.976,72.1a4.26,4.26,0,0,1,.609-1.215,2.383,2.383,0,0,1,.729-0.678,1.682,1.682,0,0,1,.816-0.2,1.494,1.494,0,0,1,1.142.489,1.914,1.914,0,0,1,.454,1.356,4.524,4.524,0,0,1-.922,2.89,1.951,1.951,0,0,1-1.535.881,1.353,1.353,0,0,1-.874-0.292A1.579,1.579,0,0,1,30.88,74.6a3.83,3.83,0,0,1-.151-1.2A4.134,4.134,0,0,1,30.976,72.1ZM40.2,67.781l0.3-1.411H39.258l-0.3,1.411H40.2Zm-1.81,8.677,1.528-7.308H38.673l-1.528,7.308h1.245ZM44.639,75.2a1.792,1.792,0,0,1-1.16.461,1.3,1.3,0,0,1-1.018-.468,2.068,2.068,0,0,1-.413-1.4,6.032,6.032,0,0,1,.313-1.861,3.125,3.125,0,0,1,.864-1.442,1.927,1.927,0,0,1,1.3-.475,1.416,1.416,0,0,1,1.042.392,1.484,1.484,0,0,1,.4,1.087l1.225-.082a2.332,2.332,0,0,0-.688-1.758,2.573,2.573,0,0,0-1.865-.664,3.5,3.5,0,0,0-2.02.6,3.8,3.8,0,0,0-1.359,1.758,6.144,6.144,0,0,0-.475,2.353,2.983,2.983,0,0,0,.74,2.154,2.554,2.554,0,0,0,1.93.771,3.138,3.138,0,0,0,1.965-.664,4.184,4.184,0,0,0,1.331-2.033L45.509,73.8A3.029,3.029,0,0,1,44.639,75.2Zm8.085,1.259h1.259a4.718,4.718,0,0,1-.151-0.991,6.8,6.8,0,0,1,.193-1.411L54.43,72.24a6.326,6.326,0,0,0,.172-1.356A1.526,1.526,0,0,0,54,69.632a3.294,3.294,0,0,0-2.147-.647,3.625,3.625,0,0,0-2.109.578,3.288,3.288,0,0,0-1.221,1.665l1.259,0.11a1.962,1.962,0,0,1,.726-0.988A2.2,2.2,0,0,1,51.788,70a2,2,0,0,1,1.266.344,0.818,0.818,0,0,1,.317.681,3.219,3.219,0,0,1-.145.846,5.689,5.689,0,0,1-1.682.248,12.6,12.6,0,0,0-1.593.131,3.256,3.256,0,0,0-1.129.409,2.184,2.184,0,0,0-.74.757A2.089,2.089,0,0,0,47.8,74.5a2.021,2.021,0,0,0,.619,1.524,2.255,2.255,0,0,0,1.631.6,3.2,3.2,0,0,0,1.28-.258,4.952,4.952,0,0,0,1.245-.816,4.591,4.591,0,0,0,.145.908h0Zm-0.2-2.037a2.433,2.433,0,0,1-2.092,1.239,1.452,1.452,0,0,1-1.029-.337,1.125,1.125,0,0,1-.361-0.86,1.218,1.218,0,0,1,.227-0.716,1.285,1.285,0,0,1,.674-0.471,7.67,7.67,0,0,1,1.535-.244q0.7-.062,1-0.117a3.006,3.006,0,0,0,.561-0.158A5.292,5.292,0,0,1,52.524,74.422Zm4.256,2.037,2.106-10.088H57.64L55.535,76.458H56.78ZM63.916,76a3.64,3.64,0,0,0,2.154.626,3.851,3.851,0,0,0,1.614-.313,2.3,2.3,0,0,0,1.018-.836,1.961,1.961,0,0,0,.334-1.067,1.859,1.859,0,0,0-.592-1.39,7.182,7.182,0,0,0-1.8-.977,5.174,5.174,0,0,1-1.067-.55,0.776,0.776,0,0,1-.31-0.605,0.836,0.836,0,0,1,.358-0.64,1.534,1.534,0,0,1,1-.3,1.832,1.832,0,0,1,1.246.385,1.4,1.4,0,0,1,.468,1.046l1.218-.082a2.214,2.214,0,0,0-.747-1.676,3.069,3.069,0,0,0-2.1-.636,2.779,2.779,0,0,0-1.927.619,1.932,1.932,0,0,0-.688,1.486,1.645,1.645,0,0,0,.234.877,2.039,2.039,0,0,0,.695.664,11.81,11.81,0,0,0,1.263.6,3.92,3.92,0,0,1,1.242.712,0.928,0.928,0,0,1,.248.612,0.974,0.974,0,0,1-.413.778,1.957,1.957,0,0,1-1.239.33,2.138,2.138,0,0,1-1.036-.241,1.311,1.311,0,0,1-.609-0.619,2.282,2.282,0,0,1-.165-0.915l-1.245.076A2.217,2.217,0,0,0,63.916,76h0Zm8.405-.468a0.605,0.605,0,0,1-.416-0.117,0.434,0.434,0,0,1-.127-0.337,7.54,7.54,0,0,1,.158-0.922l0.846-4.039H74l0.206-.963H72.981l0.557-2.656-1.424.86-0.378,1.8H70.752l-0.2.963h0.984L70.649,74.36a7.525,7.525,0,0,0-.179,1.108,0.924,0.924,0,0,0,.33.75,1.8,1.8,0,0,0,1.184.365,3.421,3.421,0,0,0,.867-0.117l0.207-1.018a2.984,2.984,0,0,1-.736.083h0Zm2.47-.3a2.517,2.517,0,0,0,1.067,1.032,3.3,3.3,0,0,0,1.552.365,3.717,3.717,0,0,0,1.978-.578,3.783,3.783,0,0,0,1.448-1.662,5.442,5.442,0,0,0,.509-2.343,3.05,3.05,0,0,0-.808-2.23,2.847,2.847,0,0,0-2.13-.826,3.489,3.489,0,0,0-2.725,1.156,5.108,5.108,0,0,0-1.259,3.544A3.138,3.138,0,0,0,74.791,75.227Zm1.06-2.935a3.645,3.645,0,0,1,.571-1.249,2.846,2.846,0,0,1,.87-0.815,2.091,2.091,0,0,1,1.067-.279,1.628,1.628,0,0,1,1.256.547,2.2,2.2,0,0,1,.5,1.538,4.933,4.933,0,0,1-.6,2.219,3.325,3.325,0,0,1-.575.754,2.289,2.289,0,0,1-.729.492,2.059,2.059,0,0,1-.791.162,1.644,1.644,0,0,1-1.259-.533,2.222,2.222,0,0,1-.5-1.565A5.183,5.183,0,0,1,75.851,72.292Zm7.514,4.167,0.619-2.931a5.545,5.545,0,0,1,1.08-2.622,1.92,1.92,0,0,1,1.342-.729,1.184,1.184,0,0,1,.709.234l0.509-1.156a2.167,2.167,0,0,0-.915-0.268,1.823,1.823,0,0,0-1.1.406,5.079,5.079,0,0,0-1.1,1.252l0.31-1.493h-1.1l-1.528,7.308h1.184Zm8.054-1.273a2.223,2.223,0,0,1-1.259.42,1.473,1.473,0,0,1-1.153-.54,2.312,2.312,0,0,1-.471-1.565,3.03,3.03,0,0,1,.028-0.385h5.381a6.539,6.539,0,0,0,.1-1.1A3.063,3.063,0,0,0,93.26,69.8a2.763,2.763,0,0,0-2.088-.812,3.546,3.546,0,0,0-1.906.547A3.954,3.954,0,0,0,87.831,71.2a5.2,5.2,0,0,0-.554,2.322,3.626,3.626,0,0,0,.354,1.631,2.461,2.461,0,0,0,1.032,1.091,3.025,3.025,0,0,0,1.49.375,3.311,3.311,0,0,0,2.24-.812,3.666,3.666,0,0,0,1.2-1.713l-1.211-.124A2.732,2.732,0,0,1,91.419,75.185Zm-1.676-4.679a2.213,2.213,0,0,1,1.455-.55,1.578,1.578,0,0,1,1.2.5,2.021,2.021,0,0,1,.468,1.435q0,0.082-.007.275h-4.1A3.3,3.3,0,0,1,89.744,70.506ZM95.95,76a3.64,3.64,0,0,0,2.154.626,3.851,3.851,0,0,0,1.614-.313,2.3,2.3,0,0,0,1.018-.836,1.958,1.958,0,0,0,.334-1.067,1.861,1.861,0,0,0-.592-1.39,7.184,7.184,0,0,0-1.8-.977,5.172,5.172,0,0,1-1.067-.55,0.775,0.775,0,0,1-.31-0.605,0.836,0.836,0,0,1,.358-0.64,1.534,1.534,0,0,1,1-.3,1.832,1.832,0,0,1,1.245.385,1.406,1.406,0,0,1,.468,1.046l1.218-.082a2.217,2.217,0,0,0-.747-1.676,3.067,3.067,0,0,0-2.1-.636,2.779,2.779,0,0,0-1.927.619,1.931,1.931,0,0,0-.688,1.486,1.645,1.645,0,0,0,.234.877,2.039,2.039,0,0,0,.695.664,11.82,11.82,0,0,0,1.263.6,3.921,3.921,0,0,1,1.242.712,0.929,0.929,0,0,1,.248.612,0.974,0.974,0,0,1-.413.778,1.957,1.957,0,0,1-1.239.33,2.138,2.138,0,0,1-1.036-.241,1.311,1.311,0,0,1-.609-0.619,2.282,2.282,0,0,1-.165-0.915l-1.246.076A2.217,2.217,0,0,0,95.95,76h0Zm14.994,0.461h1.149L114.2,66.371H112.96L112.134,70.3a2.213,2.213,0,0,0-2.057-1.314,2.942,2.942,0,0,0-1.648.55,4.135,4.135,0,0,0-1.369,1.655,5.416,5.416,0,0,0-.547,2.439,3.219,3.219,0,0,0,.691,2.226,2.233,2.233,0,0,0,1.731.767,3,3,0,0,0,2.229-1.225ZM108,72.1a4.252,4.252,0,0,1,.609-1.215,2.388,2.388,0,0,1,.729-0.678,1.684,1.684,0,0,1,.816-0.2,1.494,1.494,0,0,1,1.142.489,1.913,1.913,0,0,1,.454,1.356,4.522,4.522,0,0,1-.922,2.89,1.95,1.95,0,0,1-1.534.881,1.352,1.352,0,0,1-.874-0.292A1.566,1.566,0,0,1,107.9,74.6a3.825,3.825,0,0,1-.152-1.2A4.141,4.141,0,0,1,108,72.1Zm10.621,3.083a2.224,2.224,0,0,1-1.259.42,1.472,1.472,0,0,1-1.153-.54,2.314,2.314,0,0,1-.471-1.565,3.1,3.1,0,0,1,.027-0.385h5.381a6.562,6.562,0,0,0,.1-1.1,3.065,3.065,0,0,0-.781-2.216,2.764,2.764,0,0,0-2.089-.812,3.545,3.545,0,0,0-1.906.547,3.962,3.962,0,0,0-1.435,1.672,5.2,5.2,0,0,0-.554,2.322,3.617,3.617,0,0,0,.355,1.631,2.459,2.459,0,0,0,1.032,1.091,3.025,3.025,0,0,0,1.49.375,3.313,3.313,0,0,0,2.24-.812,3.662,3.662,0,0,0,1.2-1.713l-1.211-.124A2.728,2.728,0,0,1,118.62,75.185Zm-1.676-4.679a2.213,2.213,0,0,1,1.456-.55,1.578,1.578,0,0,1,1.2.5,2.02,2.02,0,0,1,.468,1.435c0,0.055,0,.147-0.007.275h-4.1A3.3,3.3,0,0,1,116.944,70.506Zm5.884,8.753,0.825-3.97a2.235,2.235,0,0,0,2.037,1.335,2.661,2.661,0,0,0,1.156-.268,3.91,3.91,0,0,0,1.115-.839,4.65,4.65,0,0,0,.929-1.51,5.528,5.528,0,0,0,.378-2.082,3.135,3.135,0,0,0-.688-2.178,2.24,2.24,0,0,0-1.734-.76,2.323,2.323,0,0,0-1.07.258,4.6,4.6,0,0,0-1.146.926l0.214-1.019H123.7l-2.113,10.109h1.246Zm1.445-7.046a4.452,4.452,0,0,1,.574-1.221,2.626,2.626,0,0,1,.754-0.75,1.641,1.641,0,0,1,.88-0.251,1.41,1.41,0,0,1,1.105.506,2.106,2.106,0,0,1,.444,1.435,5.078,5.078,0,0,1-.661,2.467,1.962,1.962,0,0,1-1.734,1.208,1.547,1.547,0,0,1-1.473-1,3.734,3.734,0,0,1-.116-1.135A4.268,4.268,0,0,1,124.273,72.213Zm10.971,4.246h1.26a4.727,4.727,0,0,1-.152-0.991,6.841,6.841,0,0,1,.193-1.411l0.406-1.817a6.3,6.3,0,0,0,.172-1.356,1.526,1.526,0,0,0-.606-1.252,3.291,3.291,0,0,0-2.146-.647,3.629,3.629,0,0,0-2.11.578,3.29,3.29,0,0,0-1.221,1.665l1.259,0.11a1.969,1.969,0,0,1,.726-0.988A2.2,2.2,0,0,1,134.309,70a2,2,0,0,1,1.266.344,0.817,0.817,0,0,1,.316.681,3.231,3.231,0,0,1-.144.846,5.7,5.7,0,0,1-1.683.248,12.61,12.61,0,0,0-1.593.131,3.251,3.251,0,0,0-1.128.409,2.183,2.183,0,0,0-.74.757,2.088,2.088,0,0,0-.279,1.084,2.022,2.022,0,0,0,.62,1.524,2.254,2.254,0,0,0,1.631.6,3.2,3.2,0,0,0,1.279-.258,4.935,4.935,0,0,0,1.246-.816,4.617,4.617,0,0,0,.144.908h0Zm-0.2-2.037a2.435,2.435,0,0,1-2.092,1.239,1.453,1.453,0,0,1-1.029-.337,1.124,1.124,0,0,1-.361-0.86,1.22,1.22,0,0,1,.227-0.716,1.287,1.287,0,0,1,.674-0.471A7.686,7.686,0,0,1,134,73.032q0.7-.062,1-0.117a2.99,2.99,0,0,0,.561-0.158A5.3,5.3,0,0,1,135.045,74.422Zm4.29,2.037,0.62-2.931a5.537,5.537,0,0,1,1.08-2.622,1.921,1.921,0,0,1,1.342-.729,1.18,1.18,0,0,1,.708.234l0.51-1.156a2.172,2.172,0,0,0-.916-0.268,1.822,1.822,0,0,0-1.1.406,5.081,5.081,0,0,0-1.1,1.252l0.309-1.493h-1.1l-1.527,7.308h1.183Zm5.825-.929a0.6,0.6,0,0,1-.416-0.117,0.435,0.435,0,0,1-.128-0.337,7.534,7.534,0,0,1,.159-0.922l0.846-4.039h1.218l0.206-.963h-1.224l0.557-2.656-1.424.86-0.379,1.8h-0.984l-0.2.963h0.984l-0.888,4.246a7.575,7.575,0,0,0-.179,1.108,0.925,0.925,0,0,0,.33.75,1.8,1.8,0,0,0,1.184.365,3.419,3.419,0,0,0,.867-0.117l0.206-1.018a2.978,2.978,0,0,1-.736.083h0Zm3.12,0.929L149,73a5.587,5.587,0,0,1,.6-1.717,2.646,2.646,0,0,1,.946-0.939,2.22,2.22,0,0,1,1.111-.337,0.8,0.8,0,0,1,.582.22,0.775,0.775,0,0,1,.223.578,3.906,3.906,0,0,1-.11.716l-1.032,4.934h1.245l0.744-3.544a5.916,5.916,0,0,1,.56-1.682,2.451,2.451,0,0,1,.9-0.884,2.248,2.248,0,0,1,1.136-.337,0.919,0.919,0,0,1,.64.206,0.726,0.726,0,0,1,.227.564,4.547,4.547,0,0,1-.131.846l-1,4.831h1.246l0.984-4.707a6.465,6.465,0,0,0,.158-1.115,1.6,1.6,0,0,0-.457-1.218,1.932,1.932,0,0,0-1.373-.433,2.64,2.64,0,0,0-1.3.341,4.087,4.087,0,0,0-1.174,1.029,1.709,1.709,0,0,0-.6-1.008,1.778,1.778,0,0,0-1.138-.361,2.453,2.453,0,0,0-1.187.3,4.992,4.992,0,0,0-1.243,1.073l0.255-1.2h-1.245l-1.528,7.308h1.245Zm15.046-1.273a2.224,2.224,0,0,1-1.259.42,1.474,1.474,0,0,1-1.153-.54,2.314,2.314,0,0,1-.471-1.565,3.1,3.1,0,0,1,.027-0.385h5.381a6.459,6.459,0,0,0,.1-1.1,3.065,3.065,0,0,0-.781-2.216,2.764,2.764,0,0,0-2.089-.812,3.547,3.547,0,0,0-1.906.547,3.962,3.962,0,0,0-1.435,1.672,5.2,5.2,0,0,0-.553,2.322,3.63,3.63,0,0,0,.354,1.631,2.459,2.459,0,0,0,1.032,1.091,3.028,3.028,0,0,0,1.49.375,3.312,3.312,0,0,0,2.24-.812,3.662,3.662,0,0,0,1.2-1.713l-1.211-.124A2.728,2.728,0,0,1,163.326,75.185Zm-1.676-4.679a2.215,2.215,0,0,1,1.456-.55,1.577,1.577,0,0,1,1.2.5,2.02,2.02,0,0,1,.468,1.435c0,0.055,0,.147-0.007.275h-4.1A3.3,3.3,0,0,1,161.65,70.506Zm6.5,5.952,0.709-3.4a4.4,4.4,0,0,1,1.1-2.36,2.445,2.445,0,0,1,1.7-.688,1.049,1.049,0,0,1,.726.227,0.762,0.762,0,0,1,.251.592,5.265,5.265,0,0,1-.145,1l-0.97,4.631h1.245l0.929-4.425a7.113,7.113,0,0,0,.179-1.28,1.694,1.694,0,0,0-.5-1.287,1.941,1.941,0,0,0-1.394-.482,2.727,2.727,0,0,0-1.307.344,5.974,5.974,0,0,0-1.377,1.094l0.269-1.273h-1.129L166.9,76.458h1.245Zm8.908-.929a0.607,0.607,0,0,1-.417-0.117,0.434,0.434,0,0,1-.127-0.337,7.652,7.652,0,0,1,.158-0.922l0.847-4.039h1.218l0.206-.963h-1.225l0.558-2.656-1.425.86-0.378,1.8h-0.984l-0.2.963h0.984l-0.887,4.246a7.431,7.431,0,0,0-.179,1.108,0.925,0.925,0,0,0,.33.75,1.8,1.8,0,0,0,1.184.365,3.431,3.431,0,0,0,.867-0.117l0.206-1.018a2.984,2.984,0,0,1-.736.083h0Z"/>
</svg>
